{"asset": {"version": "2.0"}, "scene": 0, "scenes": [{"nodes": [0]}], "nodes": [{"mesh": 0, "name": "Gun"}], "meshes": [{"primitives": [{"attributes": {"POSITION": 0}, "indices": 1}]}], "buffers": [{"byteLength": 232, "uri": "data:application/octet-stream;base64,"}], "bufferViews": [{"buffer": 0, "byteOffset": 0, "byteLength": 96, "target": 34962}, {"buffer": 0, "byteOffset": 96, "byteLength": 72, "target": 34963}, {"buffer": 0, "byteOffset": 168, "byteLength": 16}, {"buffer": 0, "byteOffset": 184, "byteLength": 48}], "accessors": [{"bufferView": 0, "componentType": 5126, "count": 8, "type": "VEC3", "min": [-0.4, -0.05, -0.05], "max": [0.4, 0.05, 0.05]}, {"bufferView": 1, "componentType": 5123, "count": 36, "type": "SCALAR"}, {"bufferView": 2, "componentType": 5126, "count": 4, "type": "SCALAR", "min": [0.0], "max": [0.25]}, {"bufferView": 3, "componentType": 5126, "count": 4, "type": "VEC3"}], "animations": [{"samplers": [{"input": 2, "output": 3, "interpolation": "LINEAR"}], "channels": [{"sampler": 0, "target": {"node": 0, "path": "translation"}}], "name": "Fire"}]}