{"asset": {"version": "2.0"}, "scene": 0, "scenes": [{"nodes": [0]}], "nodes": [{"mesh": 0, "name": "Sword"}], "meshes": [{"primitives": [{"attributes": {"POSITION": 0}, "indices": 1}]}], "buffers": [{"byteLength": 260, "uri": "data:application/octet-stream;base64,"}], "bufferViews": [{"buffer": 0, "byteOffset": 0, "byteLength": 144, "target": 34962}, {"buffer": 0, "byteOffset": 144, "byteLength": 36, "target": 34963}, {"buffer": 0, "byteOffset": 180, "byteLength": 16}, {"buffer": 0, "byteOffset": 196, "byteLength": 64}], "accessors": [{"bufferView": 0, "componentType": 5126, "count": 12, "type": "VEC3"}, {"bufferView": 1, "componentType": 5123, "count": 18, "type": "SCALAR"}, {"bufferView": 2, "componentType": 5126, "count": 4, "type": "SCALAR", "min": [0], "max": [0.35]}, {"bufferView": 3, "componentType": 5126, "count": 4, "type": "VEC4"}], "animations": [{"name": "Swing", "samplers": [{"input": 2, "output": 3, "interpolation": "LINEAR"}], "channels": [{"sampler": 0, "target": {"node": 0, "path": "rotation"}}]}]}